<svg xmlns="http://www.w3.org/2000/svg" xmlns:xlink="http://www.w3.org/1999/xlink" version="1.1"
    x="0px" y="0px" viewBox="0 0 256 256" enable-background="new 0 0 256 256" xml:space="preserve"
    width="128" height="128">
    <metadata> Svg Vector Icons : http://www.onlinewebfonts.com/icon </metadata>
    <g><g><g><path fill="#D3D3D3" d="M116.3,25.3c-12.9,2-24.5,8.3-35.3,19.2c-9.4,9.4-16.1,22.3-18.3,35.3c-0.5,2.5-0.8,4.7-0.9,4.7c0,0.1-2,0.6-4.4,1.2C22.7,94.6,2,130.9,12.9,164.3c5.9,18.1,22.4,34.4,41.9,41.3c5.3,1.8,11.9,3.2,17.9,3.6c4.2,0.3,5.1,0.2,6.6-0.5c5.1-2.4,5.9-9.1,1.3-12.6c-1.3-1.1-2.3-1.2-6.3-1.6c-11.4-0.9-21-4.5-29.9-11.2c-19.3-14.5-25.1-37.3-14.7-58.1c2.4-4.8,4.1-7.2,8-11.3c8.4-8.9,18.2-13.7,30.6-15.1c3.1-0.3,5.2-1.4,6.7-3.6c0.7-1,1-2.4,1.3-6.2c0.6-8.3,2.2-14.3,5.5-20.9c6.4-12.7,19.4-23.8,32.2-27.4c3.1-0.9,4.7-1,12.8-1c8.5,0,9.6,0.1,13.8,1.2c9.5,2.5,19.8,8.8,25.8,15.7c8.2,9.4,12.2,19.3,13.2,32.3c0.3,3.9,0.6,5.3,1.3,6.2c1.6,2.2,3.6,3.2,7,3.6c7.7,0.7,16.4,3.8,22.8,8.1c3.8,2.5,9.8,8.6,12.4,12.4c13.1,19.5,10.3,47.7-6.3,64.6c-6.6,6.7-12.9,9.8-21.4,10.7c-4,0.4-5.3,1-7.1,3.4c-1.5,2-1.3,6.1,0.3,8.2c2,2.6,4,3.3,8.4,3c5.7-0.4,10.5-1.8,16.2-4.7c15.9-8,27.3-24.1,31.7-44.5c1.5-7,1.5-19.4,0-26.3c-3.8-17.8-14.2-32.2-30.1-41.5c-5.1-3-11.2-5.3-19.4-7.1c-1.1-0.2-1.2-0.6-1.5-2.7c-1-7.8-4.5-18-8.8-25.1c-10.8-18-28.6-29.4-49.7-32.1C130.3,24.5,120.9,24.6,116.3,25.3z"/><path fill="#D3D3D3" d="M132.4,113.9c-0.8,0.4-9.9,9.2-20.2,19.5c-16.1,16.2-18.8,19.1-19.3,20.8c-1.6,5.4,3.6,10.5,9,8.9c1.6-0.5,3.9-2.5,14.1-12.6l12.1-12V182c0,48.5-0.2,45.4,3.1,48c2.4,1.8,6.1,1.8,8.5,0c3.3-2.5,3.1,0.5,3.1-48v-43.5l12.1,12c10.2,10.2,12.4,12.1,14.1,12.6c5.4,1.6,10.5-3.6,8.9-9c-0.5-1.7-3.2-4.6-19.3-20.7c-10.3-10.4-19.4-19.2-20.2-19.5C136.5,113.1,134.2,113.1,132.4,113.9z"/></g></g></g>
    </svg>